<svg xmlns="http://www.w3.org/2000/svg" width="64" height="92" version="1.1"><style type="text/css">#background{fill:none}.arrows{fill:#000;stroke:none}.selected .arrows{fill:#fff}.checkmark{fill:#000;font-family:sans-serif;font-size:10pt;text-anchor:middle}.trash{fill:#888}</style><rect id="background" width="64" height="92" x="0" y="0"/><g><path d="M 13,1.5 13,14.5 1.74,8 z" class="arrows"/><path d="M 17.5,3 30.5,3 24,14.26 z" class="arrows"/><path d="M 35,1.5 35,14.5 46.26,8 z" class="arrows"/></g><g class="selected"><path d="M 13,1.5 13,14.5 1.74,8 z" class="arrows" transform="translate(0, 16)"/><path d="M 17.5,3 30.5,3 24,14.26 z" class="arrows" transform="translate(0, 16)"/><path d="M 35,1.5 35,14.5 46.26,8 z" class="arrows" transform="translate(0, 16)"/></g><text x="55.5" y="28" class="checkmark">✓</text><g class="trash"><path d="M 2,41 v 6 h 42 v -6 h -10.5 l -3,-3 h -15 l -3,3 z"/><rect width="36" height="20" x="5" y="50"/><rect width="36" height="42" x="5" y="50" rx="4" ry="4"/></g></svg>